<svg aria-hidden="true" style="position: absolute; width: 0; height: 0; overflow: hidden;" version="1.1" xmlns="http://www.w3.org/2000/svg" xmlns:xlink="http://www.w3.org/1999/xlink">
    <defs>
        <symbol id="icon-close" viewBox="0 0 30 30">
            <path fill="#fff" style="fill: var(--color1, #fff)" d="M30 15c0 8.284-6.716 15-15 15s-15-6.716-15-15c0-8.284 6.716-15 15-15s15 6.716 15 15z"></path>
            <path fill="none" stroke="#000" style="stroke: var(--color2, #00000010)" stroke-linejoin="miter" stroke-linecap="butt" stroke-miterlimit="4" stroke-width="1" d="M29.5 15c0 8.008-6.492 14.5-14.5 14.5s-14.5-6.492-14.5-14.5c0-8.008 6.492-14.5 14.5-14.5s14.5 6.492 14.5 14.5z"></path>
            <path fill="#000" style="fill: var(--color2, #000)" d="M21 10.108l-1.108-1.108-4.392 4.392-4.392-4.392-1.108 1.108 4.392 4.392-4.392 4.392 1.108 1.108 4.392-4.392 4.392 4.392 1.108-1.108-4.392-4.392 4.392-4.392z"></path>
        </symbol>
    </defs>
</svg>