<svg aria-hidden="true" style="position: absolute; width: 0; height: 0; overflow: hidden;" version="1.1" xmlns="http://www.w3.org/2000/svg" xmlns:xlink="http://www.w3.org/1999/xlink">
    <defs>
        <symbol id="icon-antenna" viewBox="0 0 40 40">
            <path fill="#212121" style="fill: var(--color2, #212121)" d="M38.466 27.622l-10.554-10.631 1.171-5.769c0.302 0.118 0.624 0.18 0.948 0.182h0.008c1.49 0.018 2.713-1.176 2.73-2.667s-1.176-2.713-2.667-2.73c-1.49-0.018-2.713 1.176-2.73 2.667-0.004 0.319 0.049 0.636 0.156 0.936l-6.2 0.757-10.113-10.166c-0.124-0.127-0.293-0.199-0.471-0.2-0.175 0.001-0.343 0.071-0.467 0.194l-1.891 1.88c-0.26 0.26-0.26 0.682 0 0.943l1.017 1.032c-3.941 7.247-2.661 16.222 3.149 22.079 0.053 0.051 0.115 0.092 0.183 0.122-0.042 0.226-0.064 0.455-0.065 0.684v7.733h-8c-1.84 0.002-3.331 1.493-3.333 3.333v1.333c0 0.368 0.299 0.667 0.667 0.667h30.667c0.368 0 0.667-0.299 0.667-0.667v-1.333c-0.002-1.84-1.493-3.331-3.333-3.333h-8v-3.427c1.253 0.263 2.53 0.397 3.811 0.4 3.073-0.003 6.096-0.769 8.8-2.229l1.023 1.029c0.124 0.127 0.293 0.199 0.471 0.2 0.175-0.001 0.343-0.071 0.467-0.194l1.891-1.88c0.26-0.26 0.26-0.682 0-0.943zM29.1 7.791c0.522-0.519 1.366-0.517 1.886 0.005s0.517 1.366-0.005 1.886c-0.25 0.249-0.588 0.388-0.941 0.388h-0.004c-0.736-0.004-1.33-0.604-1.326-1.34 0.002-0.352 0.143-0.69 0.393-0.938h-0.003zM27.53 12.172l-0.748 3.682-1.469-1.478 2.217-2.204zM26.773 11.045l-2.4 2.386-1.857-1.867 4.257-0.519zM30.005 36c1.105 0 2 0.895 2 2v0.667h-29.333v-0.667c0-1.105 0.895-2 2-2h25.333zM20.672 33.333v1.333h-6.667v-1.333h6.667zM14.005 32v-5.067c0-1.617 1.495-2.933 3.333-2.933s3.333 1.316 3.333 2.933v5.067h-6.667zM22.005 29.88v-2.947c0-2.353-2.093-4.267-4.667-4.267-1.664-0.026-3.22 0.821-4.101 2.233-5.072-5.342-6.214-13.306-2.848-19.859l23.252 23.386c-3.591 1.827-7.706 2.341-11.636 1.454zM36.116 29.025l-26.321-26.476 0.943-0.94 9.919 9.975c0.005 0 0.007 0.009 0.012 0.012l16.393 16.489-0.946 0.94z"></path>
            <path fill="#2196f3" style="fill: var(--color1, #2196f3)" d="M17.344 25.333h-0.006c-1.105-0.002-2.001 0.892-2.003 1.997s0.892 2.001 1.997 2.003h0.006c1.105 0.002 2.001-0.892 2.003-1.997s-0.892-2.001-1.997-2.003zM17.811 27.806c-0.125 0.125-0.296 0.195-0.473 0.194-0.368-0.002-0.665-0.302-0.663-0.67 0.001-0.176 0.072-0.345 0.197-0.469s0.292-0.193 0.467-0.194c0.368 0.002 0.665 0.302 0.663 0.67-0.001 0.176-0.072 0.345-0.197 0.469h0.006z"></path>
        </symbol>
        <symbol id="icon-astronaut" viewBox="0 0 40 40">
            <path fill="#2196f3" style="fill: var(--color1, #2196f3)" d="M39.968 5.655c-0.079-0.241-0.287-0.417-0.538-0.453l-2.388-0.347-1.069-2.164c-0.224-0.456-0.971-0.456-1.195 0l-1.069 2.164-2.388 0.347c-0.251 0.037-0.459 0.212-0.539 0.453-0.078 0.241-0.013 0.507 0.169 0.683l1.729 1.685-0.408 2.379c-0.043 0.25 0.060 0.503 0.265 0.652 0.207 0.151 0.478 0.169 0.703 0.051l2.136-1.123 2.136 1.123c0.097 0.051 0.205 0.077 0.311 0.077 0.138 0 0.276-0.043 0.392-0.127 0.205-0.149 0.308-0.402 0.265-0.652l-0.408-2.379 1.729-1.685c0.181-0.177 0.246-0.442 0.168-0.683zM36.889 7.314c-0.157 0.153-0.229 0.374-0.191 0.59l0.239 1.393-1.251-0.657c-0.097-0.051-0.204-0.077-0.311-0.077s-0.213 0.025-0.311 0.077l-1.251 0.657 0.239-1.393c0.037-0.216-0.035-0.437-0.191-0.59l-1.013-0.987 1.399-0.203c0.217-0.031 0.405-0.168 0.502-0.365l0.625-1.267 0.625 1.267c0.097 0.197 0.285 0.333 0.502 0.365l1.399 0.203-1.011 0.987z"></path>
            <path fill="#2196f3" style="fill: var(--color1, #2196f3)" d="M32.667 25.653h-1.333v1.333h1.333v-1.333z"></path>
            <path fill="#2196f3" style="fill: var(--color1, #2196f3)" d="M32.667 28.319h-1.333v1.333h1.333v-1.333z"></path>
            <path fill="#2196f3" style="fill: var(--color1, #2196f3)" d="M34 26.986h-1.333v1.333h1.333v-1.333z"></path>
            <path fill="#2196f3" style="fill: var(--color1, #2196f3)" d="M31.334 26.986h-1.333v1.333h1.333v-1.333z"></path>
            <path fill="#2196f3" style="fill: var(--color1, #2196f3)" d="M28 32.986h-1.333v1.333h1.333v-1.333z"></path>
            <path fill="#2196f3" style="fill: var(--color1, #2196f3)" d="M28 35.653h-1.333v1.333h1.333v-1.333z"></path>
            <path fill="#2196f3" style="fill: var(--color1, #2196f3)" d="M29.334 34.32h-1.333v1.333h1.333v-1.333z"></path>
            <path fill="#2196f3" style="fill: var(--color1, #2196f3)" d="M26.667 34.32h-1.333v1.333h1.333v-1.333z"></path>
            <path fill="#2196f3" style="fill: var(--color1, #2196f3)" d="M20 30.32h-1.333v1.333h1.333v-1.333z"></path>
            <path fill="#2196f3" style="fill: var(--color1, #2196f3)" d="M20 32.986h-1.333v1.333h1.333v-1.333z"></path>
            <path fill="#2196f3" style="fill: var(--color1, #2196f3)" d="M21.333 31.653h-1.333v1.333h1.333v-1.333z"></path>
            <path fill="#2196f3" style="fill: var(--color1, #2196f3)" d="M18.667 31.653h-1.333v1.333h1.333v-1.333z"></path>
            <path fill="#2196f3" style="fill: var(--color1, #2196f3)" d="M7.333 7.652h-1.333v1.333h1.333v-1.333z"></path>
            <path fill="#2196f3" style="fill: var(--color1, #2196f3)" d="M7.333 10.319h-1.333v1.333h1.333v-1.333z"></path>
            <path fill="#2196f3" style="fill: var(--color1, #2196f3)" d="M8.666 8.986h-1.333v1.333h1.333v-1.333z"></path>
            <path fill="#2196f3" style="fill: var(--color1, #2196f3)" d="M6 8.986h-1.333v1.333h1.333v-1.333z"></path>
            <path fill="#212121" style="fill: var(--color2, #212121)" d="M30.893 17.699c-0.359-0.485-0.887-0.797-1.485-0.881-0.601-0.085-1.195 0.073-1.675 0.44l-1.565 1.2-2.372 1.771-1.697-0.676c3.027-1.358 5.142-4.385 5.142-7.9 0-4.779-3.903-8.667-8.701-8.667s-8.701 3.888-8.701 8.667c0 1.732 0.518 3.343 1.4 4.698l-3.455-0.030c-0.002 0-0.004 0-0.006 0-0.011 0-0.019 0.005-0.029 0.006-0.066 0.003-0.131 0.016-0.194 0.039-0.016 0.006-0.033 0.009-0.048 0.017-0.008 0.003-0.016 0.004-0.024 0.008l-4.041 1.995c-0.001 0-0.001 0-0.001 0.001l-2.367 1.138c-0.026 0.011-0.053 0.027-0.079 0.044-0.943 0.628-1.265 1.861-0.748 2.869 0.275 0.536 0.744 0.931 1.32 1.111 0.222 0.069 0.449 0.103 0.674 0.103 0.362 0 0.721-0.089 1.049-0.264l1.735-0.923 2.83-1.461 1.696-0.010-6.802 6.769c-0.001 0.001-0.001 0.001-0.002 0.001l-1.673 1.667c-0.395 0.393-0.613 0.915-0.613 1.472s0.217 1.079 0.613 1.473c0.406 0.404 0.94 0.607 1.474 0.607s1.068-0.203 1.475-0.607l1.643-1.636 2.176-1.625 1.126 1.121-2.202 2.193c-0.001 0.001-0.001 0.001-0.002 0.001l-1.673 1.667c-0.395 0.393-0.613 0.915-0.613 1.472s0.217 1.079 0.613 1.473c0.406 0.404 0.941 0.607 1.475 0.607s1.069-0.203 1.475-0.607l4.352-4.333c0.001-0.001 0.001-0.001 0.001-0.002l1.262-1.25-0.005-0.005c0.008-0.008 0.019-0.011 0.027-0.019l6.457-7.073 4.339 0.617c0.031 0.005 0.063 0.007 0.094 0.007 0.081 0 0.159-0.019 0.234-0.048 0.022-0.008 0.041-0.019 0.062-0.029 0.024-0.012 0.049-0.019 0.072-0.034l4.017-2.667c0.015-0.010 0.023-0.026 0.037-0.037 0.016-0.013 0.036-0.018 0.051-0.032l1.589-1.489c0.827-0.775 0.941-2.044 0.265-2.952zM2.663 22.213c-0.217 0.116-0.463 0.139-0.698 0.065-0.233-0.073-0.423-0.232-0.533-0.447-0.201-0.392-0.085-0.869 0.268-1.127l1.642-0.79 0.561 1.641-1.24 0.659zM7.034 19.928l-1.935 1-0.549-1.604 2.533-1.251-0.049 1.855zM25.909 11.652c0 1.148-0.274 2.231-0.749 3.199l-5.227-2.374c-0.055-0.717-0.427-1.344-0.985-1.735l1.83-6.075c2.972 0.945 5.131 3.718 5.131 6.985zM11.173 11.652c0-4.043 3.305-7.333 7.368-7.333 0.316 0 0.625 0.027 0.931 0.065l-1.79 5.942c-0.024-0.001-0.047-0.007-0.071-0.007-1.291 0-2.341 1.047-2.341 2.333s1.050 2.333 2.341 2.333c0.868 0 1.618-0.479 2.023-1.181l4.828 2.193c-1.343 1.808-3.493 2.987-5.921 2.987-4.063 0-7.368-3.29-7.368-7.333zM18.618 12.652c0 0.551-0.452 1-1.007 1s-1.007-0.449-1.007-1c0-0.551 0.452-1 1.007-1s1.007 0.449 1.007 1zM3.081 31.433c-0.295 0.293-0.773 0.292-1.068 0.001-0.142-0.142-0.22-0.329-0.22-0.529s0.078-0.386 0.22-0.527l1.203-1.198 1.064 1.059-1.199 1.193zM7.098 36.1c-0.295 0.293-0.774 0.293-1.069 0.001-0.142-0.142-0.22-0.329-0.22-0.529s0.078-0.386 0.22-0.527l1.203-1.199 1.065 1.059-1.199 1.194zM11.451 31.764c-0.001 0.001-0.001 0.001-0.002 0.001l-2.206 2.2-1.065-1.059 2.204-2.194c0 0 0 0 0-0.001s0.001-0.001 0.002-0.001c0.050-0.050 0.081-0.11 0.112-0.169 0.009-0.017 0.025-0.032 0.033-0.050 0.021-0.051 0.024-0.107 0.032-0.161 0.004-0.031 0.017-0.059 0.017-0.091 0-0.045-0.016-0.088-0.025-0.132-0.008-0.040-0.008-0.081-0.023-0.119-0.025-0.063-0.069-0.118-0.114-0.172-0.013-0.015-0.017-0.033-0.031-0.047 0 0 0 0-0.001 0s-0.001-0.002-0.001-0.003l-2.009-2c-0.021-0.021-0.049-0.030-0.073-0.048-0.035-0.027-0.069-0.053-0.109-0.072-0.038-0.019-0.077-0.030-0.117-0.041-0.043-0.012-0.084-0.021-0.129-0.025-0.041-0.003-0.079 0.001-0.119 0.006-0.045 0.005-0.087 0.011-0.13 0.025-0.042 0.013-0.079 0.034-0.118 0.056-0.025 0.014-0.053 0.019-0.076 0.036l-2.217 1.655-1.126-1.121 2.999-2.983 5.451 5.361-1.159 1.149zM19.974 22.993c-0.019-0.003-0.037 0.005-0.057 0.003-0.049-0.003-0.095 0.001-0.144 0.009-0.038 0.007-0.074 0.014-0.11 0.027-0.043 0.015-0.081 0.035-0.121 0.059-0.037 0.023-0.071 0.047-0.104 0.077-0.016 0.014-0.035 0.021-0.050 0.037l-5.873 6.432-5.41-5.321 3.541-3.523c0.261-0.26 0.262-0.682 0.002-0.943-0.131-0.131-0.304-0.196-0.477-0.195v-0.001l-2.773 0.017 0.035-2.009 3.88 0.033c1.581 1.617 3.787 2.626 6.227 2.626 0.547 0 1.080-0.057 1.599-0.153 0.050 0.040 0.099 0.081 0.162 0.106l3.012 1.2 0.413 2.055-3.753-0.534zM25.025 23.215l-0.391-1.947 1.808-1.35 1.183 1.571-2.6 1.727zM29.717 19.677l-1.047 0.981-1.164-1.545 1.039-0.797c0.194-0.149 0.439-0.21 0.679-0.179 0.241 0.034 0.455 0.16 0.6 0.355 0.271 0.365 0.225 0.873-0.107 1.184z"></path>
            <path fill="#212121" style="fill: var(--color2, #212121)" d="M17.003 23.18l-2.679-2.667c-0.259-0.259-0.681-0.259-0.941 0l-2.678 2.667c-0.125 0.126-0.196 0.295-0.196 0.473s0.070 0.347 0.196 0.473l2.678 2.667c0.13 0.129 0.301 0.194 0.471 0.194s0.341-0.065 0.47-0.194l2.679-2.667c0.125-0.125 0.197-0.295 0.197-0.473s-0.071-0.347-0.197-0.473zM13.854 25.379l-1.733-1.726 1.733-1.726 1.734 1.726-1.734 1.726z"></path>
            <path fill="#212121" style="fill: var(--color2, #212121)" d="M21.455 6.338l-0.322 1.295c0.089 0.022 2.172 0.565 2.172 2.686h1.333c-0-2.521-2.082-3.707-3.183-3.981z"></path>
            <path fill="#212121" style="fill: var(--color2, #212121)" d="M24.639 11.652h-1.333v1.333h1.333v-1.333z"></path>
        </symbol>
        <symbol id="icon-clock" viewBox="0 0 40 40">
            <path fill="#212121" style="fill: var(--color2, #212121)" d="M39.121 19.127c-0.002-10.565-8.569-19.129-19.135-19.127s-19.129 8.569-19.127 19.135c0.002 8.322 5.384 15.689 13.312 18.22 0.076 0.024 0.154 0.036 0.233 0.036 0.151-0 0.298-0.041 0.428-0.117 0.169-0.1 0.295-0.258 0.354-0.446l4.831-15.313c1.321-0.007 2.386-1.083 2.379-2.404s-1.083-2.386-2.404-2.379c-0.355 0.001-0.706 0.083-1.025 0.239l-6.382-6.383c-0.317-0.306-0.821-0.297-1.127 0.020-0.298 0.309-0.298 0.799 0 1.108l6.379 6.386c-0.489 0.999-0.21 2.205 0.671 2.886l-4.603 14.591c-9.097-3.351-13.755-13.442-10.404-22.54s13.442-13.756 22.54-10.404c9.097 3.351 13.756 13.443 10.404 22.54-1.637 4.445-5.001 8.039-9.328 9.967l-0.497-2.343c-0.091-0.431-0.514-0.706-0.945-0.615-0.136 0.029-0.262 0.093-0.366 0.185l-4.796 4.282c-0.329 0.293-0.358 0.796-0.065 1.125 0.095 0.107 0.217 0.186 0.354 0.23l6.123 1.954c0.419 0.135 0.868-0.096 1.003-0.515 0.043-0.132 0.050-0.273 0.021-0.41l-0.489-2.299c7.080-2.985 11.678-9.928 11.661-17.611v0zM19.99 18.329c0.44 0 0.797 0.357 0.797 0.797s-0.357 0.797-0.797 0.797c-0.44 0-0.797-0.357-0.797-0.797s0.357-0.797 0.797-0.797zM22.616 36.909l2.73-2.435 0.753 3.55-3.484-1.115z"></path>
            <path fill="#2196f3" style="fill: var(--color1, #2196f3)" d="M19.193 3.981v1.594c0 0.44 0.357 0.797 0.797 0.797s0.797-0.357 0.797-0.797v-1.594c0-0.44-0.357-0.797-0.797-0.797s-0.797 0.357-0.797 0.797z"></path>
            <path fill="#2196f3" style="fill: var(--color1, #2196f3)" d="M4.845 18.329c-0.44 0-0.797 0.357-0.797 0.797s0.357 0.797 0.797 0.797h1.594c0.44 0 0.797-0.357 0.797-0.797s-0.357-0.797-0.797-0.797h-1.594z"></path>
            <path fill="#2196f3" style="fill: var(--color1, #2196f3)" d="M35.135 19.924c0.44 0 0.797-0.357 0.797-0.797s-0.357-0.797-0.797-0.797h-1.594c-0.44 0-0.797 0.357-0.797 0.797s0.357 0.797 0.797 0.797h1.594z"></path>
        </symbol>
        <symbol id="icon-diagram" viewBox="0 0 40 40">
            <path fill="#2196f3" style="fill: var(--color1, #2196f3)" d="M18.657 18.706h1.333v5.997h-1.333v-5.997z"></path>
            <path fill="#2196f3" style="fill: var(--color1, #2196f3)" d="M23.987 21.371h1.333v3.332h-1.333v-3.332z"></path>
            <path fill="#2196f3" style="fill: var(--color1, #2196f3)" d="M13.326 23.37h1.333v1.333h-1.333v-1.333z"></path>
            <path fill="#2196f3" style="fill: var(--color1, #2196f3)" d="M9.328 22.704h1.333v1.999h-1.333v-1.999z"></path>
            <path fill="#212121" style="fill: var(--color2, #212121)" d="M1.999 35.364h31.983c1.104 0 1.999-0.895 1.999-1.999v-2.665c0-1.104-0.895-1.999-1.999-1.999h-0.666v-16.617l3.785-3.585c0.878 0.433 1.942 0.17 2.517-0.623s0.495-1.885-0.191-2.586-1.775-0.805-2.581-0.247c-0.806 0.558-1.092 1.615-0.678 2.503l-2.852 2.703v-1.537c0-1.104-0.895-1.999-1.999-1.999h-26.653c-1.104 0-1.999 0.895-1.999 1.999v19.989h-0.666c-1.104 0-1.999 0.895-1.999 1.999v2.665c0 1.104 0.895 1.999 1.999 1.999zM37.98 6.046c0.368 0 0.666 0.298 0.666 0.666s-0.298 0.666-0.666 0.666c-0.368 0-0.666-0.298-0.666-0.666s0.298-0.666 0.666-0.666zM3.998 8.711c0-0.368 0.298-0.666 0.666-0.666h26.653c0.368 0 0.666 0.298 0.666 0.666v2.798l-1.333 1.266v-2.732c0-0.368-0.298-0.666-0.666-0.666h-23.987c-0.368 0-0.666 0.298-0.666 0.666v16.658c0 0.368 0.298 0.666 0.666 0.666h23.987c0.368 0 0.666-0.298 0.666-0.666v-12.093l1.333-1.263v15.355h-27.985v-19.989zM9.995 17.373c-0.902-0.003-1.693 0.598-1.933 1.467s0.131 1.791 0.907 2.251c0.775 0.46 1.762 0.345 2.41-0.282l2.316 1.162c0.269 0.135 0.595 0.072 0.795-0.153l4.924-5.539 4.84 3.627c0.26 0.195 0.622 0.174 0.858-0.049l4.206-3.985v10.164h-22.655v-15.325h22.655v3.325l-4.714 4.464-4.881-3.659c-0.277-0.208-0.667-0.169-0.898 0.090l-4.991 5.616-1.866-0.933c0.014-0.080 0.022-0.161 0.025-0.242 0-1.104-0.895-1.999-1.999-1.999zM10.661 19.372c0 0.368-0.298 0.666-0.666 0.666s-0.666-0.298-0.666-0.666c0-0.368 0.298-0.666 0.666-0.666s0.666 0.298 0.666 0.666zM14.659 30.033h6.663v0.666c0 0.368-0.298 0.666-0.666 0.666h-5.331c-0.368 0-0.666-0.298-0.666-0.666v-0.666zM1.333 30.699c0-0.368 0.298-0.666 0.666-0.666h11.327v0.666c0 1.104 0.895 1.999 1.999 1.999h5.331c1.104 0 1.999-0.895 1.999-1.999v-0.666h11.327c0.368 0 0.666 0.298 0.666 0.666v2.665c0 0.368-0.298 0.666-0.666 0.666h-31.983c-0.368 0-0.666-0.298-0.666-0.666v-2.665z"></path>
        </symbol>

        <symbol id="icon-envelope" viewBox="0 0 53 40">
            <path d="M48.333 0h-43.333c-2.757 0-5 2.243-5 5v30c0 2.757 2.243 5 5 5h43.333c2.757 0 5-2.243 5-5v-30c0-2.757-2.243-5-5-5v0zM48.333 3.333c0.226 0 0.442 0.047 0.639 0.129l-22.305 19.332-22.306-19.332c0.197-0.082 0.412-0.129 0.639-0.129h43.333zM48.333 36.667h-43.333c-0.92 0-1.667-0.747-1.667-1.667v-28.016l22.241 19.276c0.314 0.272 0.703 0.407 1.092 0.407s0.778-0.135 1.092-0.407l22.241-19.276v28.016c0 0.92-0.747 1.667-1.667 1.667v0z"></path>
        </symbol>
        <symbol id="icon-facebook2" viewBox="0 0 40 40">
            <path d="M26.662 6.642h3.652v-6.36c-0.63-0.087-2.797-0.282-5.32-0.282-5.265 0-8.872 3.312-8.872 9.398v5.602h-5.81v7.11h5.81v17.89h7.123v-17.888h5.575l0.885-7.11h-6.462v-4.898c0.002-2.055 0.555-3.462 3.418-3.462v0z"></path>
        </symbol>
        <symbol id="icon-instagram2" viewBox="0 0 40 40">
            <path d="M39.961 11.76c-0.094-2.125-0.437-3.586-0.93-4.853-0.508-1.344-1.289-2.547-2.313-3.547-1-1.016-2.211-1.805-3.54-2.305-1.273-0.492-2.727-0.836-4.852-0.93-2.141-0.102-2.821-0.125-8.252-0.125s-6.111 0.024-8.244 0.117c-2.125 0.094-3.587 0.438-4.852 0.93-1.344 0.508-2.547 1.289-3.548 2.313-1.016 1-1.805 2.211-2.305 3.54-0.492 1.274-0.836 2.727-0.93 4.852-0.102 2.141-0.125 2.821-0.125 8.252s0.024 6.11 0.117 8.244c0.094 2.125 0.438 3.586 0.93 4.853 0.508 1.344 1.297 2.547 2.313 3.547 1 1.016 2.211 1.805 3.54 2.305 1.274 0.492 2.727 0.836 4.853 0.93 2.133 0.094 2.813 0.117 8.244 0.117s6.11-0.023 8.244-0.117c2.125-0.094 3.587-0.437 4.852-0.93 2.688-1.039 4.814-3.165 5.853-5.853 0.492-1.274 0.836-2.727 0.93-4.853 0.094-2.133 0.117-2.813 0.117-8.244s-0.008-6.111-0.102-8.244zM36.359 28.091c-0.086 1.954-0.414 3.008-0.688 3.712-0.672 1.743-2.055 3.126-3.798 3.798-0.703 0.274-1.766 0.602-3.712 0.687-2.11 0.094-2.742 0.117-8.080 0.117s-5.978-0.023-8.080-0.117c-1.954-0.086-3.008-0.414-3.712-0.687-0.867-0.32-1.657-0.828-2.297-1.493-0.664-0.649-1.172-1.43-1.493-2.297-0.274-0.703-0.602-1.766-0.687-3.712-0.094-2.11-0.117-2.743-0.117-8.080s0.023-5.978 0.117-8.079c0.086-1.954 0.414-3.008 0.687-3.712 0.321-0.867 0.828-1.657 1.501-2.298 0.648-0.664 1.43-1.172 2.297-1.492 0.703-0.273 1.766-0.602 3.712-0.688 2.11-0.094 2.743-0.117 8.080-0.117 5.345 0 5.978 0.024 8.080 0.117 1.953 0.086 3.008 0.414 3.712 0.688 0.867 0.32 1.657 0.828 2.297 1.492 0.664 0.649 1.172 1.43 1.493 2.298 0.274 0.703 0.602 1.766 0.688 3.712 0.094 2.11 0.117 2.743 0.117 8.079s-0.024 5.962-0.117 8.072z"></path>
            <path d="M20.074 9.728c-5.673 0-10.275 4.602-10.275 10.275s4.603 10.275 10.275 10.275c5.673 0 10.275-4.602 10.275-10.275s-4.602-10.275-10.275-10.275zM20.074 26.669c-3.68 0-6.665-2.985-6.665-6.665s2.985-6.665 6.665-6.665c3.681 0 6.665 2.985 6.665 6.665s-2.985 6.665-6.665 6.665v0z"></path>
            <path d="M33.155 9.322c0 1.325-1.074 2.399-2.399 2.399s-2.399-1.074-2.399-2.399c0-1.325 1.074-2.399 2.399-2.399s2.399 1.074 2.399 2.399v0z"></path>
        </symbol>
        <symbol id="icon-linkedin2" viewBox="0 0 40 40">
            <path d="M39.99 40v-0.002h0.010v-14.67c0-7.177-1.545-12.705-9.935-12.705-4.033 0-6.74 2.213-7.845 4.312h-0.117v-3.642h-7.955v26.705h8.283v-13.223c0-3.482 0.66-6.848 4.972-6.848 4.248 0 4.312 3.973 4.312 7.072v13.002h8.275z"></path>
            <path d="M0.66 13.295h8.293v26.705h-8.293v-26.705z"></path>
            <path d="M4.803 0c-2.652 0-4.803 2.152-4.803 4.803s2.152 4.848 4.803 4.848c2.652 0 4.803-2.197 4.803-4.848-0.002-2.652-2.153-4.803-4.803-4.803v0z"></path>
        </symbol>
        <symbol id="icon-twitter2" viewBox="0 0 40 40">
            <path d="M40 7.598c-1.488 0.652-3.073 1.085-4.725 1.295 1.7-1.015 2.998-2.61 3.608-4.533-1.585 0.945-3.335 1.612-5.2 1.985-1.505-1.603-3.65-2.595-5.99-2.595-4.54 0-8.195 3.685-8.195 8.203 0 0.65 0.055 1.275 0.19 1.87-6.817-0.332-12.85-3.6-16.902-8.578-0.707 1.228-1.123 2.632-1.123 4.145 0 2.84 1.462 5.357 3.643 6.815-1.318-0.025-2.61-0.407-3.705-1.010 0 0.025 0 0.057 0 0.090 0 3.985 2.842 7.295 6.57 8.057-0.667 0.183-1.395 0.27-2.15 0.27-0.525 0-1.055-0.030-1.553-0.14 1.063 3.248 4.078 5.635 7.662 5.713-2.79 2.182-6.333 3.497-10.168 3.497-0.673 0-1.318-0.030-1.963-0.112 3.633 2.342 7.937 3.68 12.58 3.68 15.090 0 23.34-12.5 23.34-23.335 0-0.362-0.013-0.713-0.030-1.060 1.627-1.155 2.995-2.598 4.11-4.258z"></path>
        </symbol>
        <symbol id="icon-Vector" viewBox="0 0 25 40">
            <path d="M21.25 0h-17.5c-2.068 0-3.75 1.682-3.75 3.75v32.5c0 2.068 1.682 3.75 3.75 3.75h17.5c2.068 0 3.75-1.682 3.75-3.75v-32.5c0-2.068-1.682-3.75-3.75-3.75zM3.75 2.5h17.5c0.69 0 1.25 0.56 1.25 1.25v26.25h-20v-26.25c0-0.69 0.56-1.25 1.25-1.25zM21.25 37.5h-17.5c-0.69 0-1.25-0.56-1.25-1.25v-3.75h20v3.75c0 0.69-0.56 1.25-1.25 1.25z"></path>
        </symbol>
        <symbol id="icon-group" viewBox="0 0 53 30">
            <path d="M19 3.5l3.504 3.317-6.504-0.004v16.094h17v-6.153l3.5 3.313v-16.567h-17.5zM32.846 16.364l-9.935-9.405h9.935v9.405zM29.762 20.553h-11.071v-10.824h0.783v10.091h10.289v0.733zM21.304 25.050h0.342l-0.596 1.123v0.654h-0.31v-0.654l-0.597-1.123h0.343l0.409 0.842 0.409-0.842zM21.818 26.827l0.144-0.414h0.689l0.145 0.414h0.322l-0.673-1.777h-0.277l-0.671 1.777h0.321zM22.307 25.427l0.258 0.737h-0.515l0.258-0.737zM23.935 26.121c0.045-0.069 0.133-0.151 0.265-0.245-0.069-0.087-0.118-0.161-0.145-0.222s-0.040-0.12-0.040-0.177c0-0.139 0.042-0.249 0.127-0.33s0.199-0.122 0.342-0.122c0.129 0 0.235 0.038 0.317 0.115s0.125 0.17 0.125 0.282c0 0.074-0.019 0.142-0.056 0.205s-0.099 0.124-0.184 0.186l-0.121 0.088 0.343 0.405c0.050-0.098 0.074-0.206 0.074-0.326h0.258c0 0.219-0.051 0.398-0.154 0.538l0.261 0.309h-0.344l-0.1-0.118c-0.127 0.095-0.278 0.143-0.454 0.143s-0.317-0.046-0.422-0.139c-0.105-0.094-0.157-0.215-0.157-0.365 0-0.082 0.022-0.157 0.067-0.226zM24.737 26.514l-0.388-0.458-0.038 0.027c-0.098 0.074-0.147 0.159-0.147 0.254 0 0.082 0.026 0.149 0.079 0.2s0.124 0.077 0.212 0.077c0.1 0 0.194-0.033 0.281-0.1zM24.418 25.727l0.135-0.093 0.038-0.031c0.050-0.045 0.076-0.102 0.076-0.172 0-0.046-0.017-0.086-0.052-0.118s-0.079-0.050-0.133-0.050c-0.058 0-0.104 0.020-0.138 0.059s-0.051 0.088-0.051 0.148c0 0.068 0.042 0.154 0.126 0.258zM27.312 26.693c-0.122 0.106-0.284 0.159-0.487 0.159-0.142 0-0.267-0.033-0.375-0.1s-0.19-0.163-0.249-0.287-0.089-0.267-0.092-0.431v-0.166c0-0.168 0.030-0.315 0.089-0.443s0.144-0.226 0.255-0.295c0.112-0.069 0.24-0.104 0.386-0.104 0.196 0 0.354 0.053 0.474 0.16s0.189 0.257 0.209 0.452h-0.308c-0.015-0.128-0.052-0.22-0.112-0.276s-0.147-0.085-0.262-0.085c-0.134 0-0.238 0.049-0.31 0.148s-0.108 0.241-0.11 0.431v0.157c0 0.192 0.034 0.339 0.103 0.44s0.17 0.151 0.303 0.151c0.121 0 0.212-0.027 0.273-0.082s0.1-0.145 0.116-0.272h0.308c-0.018 0.19-0.088 0.338-0.21 0.444zM29.127 26.444c-0.060 0.131-0.147 0.232-0.259 0.303s-0.24 0.105-0.386 0.105c-0.144 0-0.273-0.035-0.386-0.105s-0.199-0.171-0.261-0.302c-0.061-0.13-0.092-0.28-0.093-0.45v-0.1c0-0.173 0.030-0.326 0.092-0.459s0.149-0.234 0.26-0.304c0.112-0.071 0.241-0.106 0.386-0.106s0.273 0.035 0.384 0.105c0.112 0.069 0.199 0.169 0.26 0.3s0.092 0.282 0.093 0.455v0.099c0 0.174-0.030 0.327-0.090 0.459zM28.796 25.439c-0.074-0.105-0.179-0.157-0.316-0.157-0.134 0-0.238 0.052-0.314 0.157s-0.113 0.252-0.115 0.443v0.103c0 0.195 0.038 0.346 0.114 0.453s0.182 0.16 0.317 0.16c0.137 0 0.242-0.052 0.315-0.156s0.111-0.256 0.111-0.457v-0.093c0-0.197-0.037-0.348-0.112-0.453z"></path>
        </symbol>
        <symbol id="icon-group2" viewBox="0 0 53 30">
            <path d="M25.057 2.967c0.115 0 0.239 0.011 0.362 0.021 0.012 0.001 0.024 0.002 0.036 0.003 0.596 0.042 1.188 0.131 1.771 0.267v-1.432c-0.6-0.15-1.211-0.248-1.828-0.291-0.234-0.018-0.483-0.029-0.739-0.036h-0.214c-1.237 0.005-2.47 0.164-3.668 0.473-1.365 0.34-2.675 0.873-3.892 1.583v14.198c1.171-0.636 2.418-1.122 3.71-1.446 1.020-0.26 2.063-0.42 3.114-0.478h0.042c0.176-0.009 0.352-0.014 0.533-0.015v-1.455c-1.366 0.018-2.724 0.198-4.048 0.538-0.489 0.127-0.963 0.264-1.407 0.417l-0.506 0.172v-11.071l0.216-0.104c1.651-0.783 3.436-1.238 5.258-1.341 0.015-0.001 0.030-0.001 0.045 0 0.201-0.010 0.404-0.015 0.602-0.015h0.228c0.105 0.003 0.21 0.005 0.315 0.011h0.068zM27.576 4.431c0.317 0.024 0.646 0.036 0.979 0.036 1.301-0.005 2.596-0.171 3.857-0.495 1.291-0.325 2.537-0.811 3.709-1.447v13.945c-1.217 0.709-2.528 1.242-3.893 1.583-1.199 0.308-2.431 0.467-3.668 0.472-0.938 0.008-1.872-0.103-2.783-0.328v-14.036c0.215 0.050 0.436 0.095 0.661 0.134 0.369 0.062 0.759 0.108 1.138 0.136zM34.674 4.539l-0.506 0.17c-0.465 0.156-0.935 0.296-1.407 0.421-1.374 0.353-2.785 0.534-4.203 0.539-0.33 0-0.634-0.009-0.927-0.028l-0.404-0.027v11.388l0.347 0.030c0.321 0.028 0.653 0.042 0.987 0.042 1.117-0.005 2.229-0.149 3.31-0.428 0.891-0.223 1.757-0.535 2.587-0.929l0.216-0.104v-11.074z"></path>
            <path d="M17.869 22.606c-0.073-0.075-0.16-0.135-0.257-0.174s-0.201-0.058-0.306-0.054c-0.111-0.001-0.222 0.019-0.325 0.061-0.095 0.038-0.181 0.094-0.253 0.167s-0.127 0.159-0.163 0.254c-0.040 0.1-0.059 0.207-0.058 0.314v1.897c-0.005 0.134 0.021 0.267 0.075 0.389 0.045 0.097 0.109 0.184 0.19 0.254 0.076 0.064 0.165 0.11 0.261 0.135 0.092 0.026 0.188 0.039 0.283 0.039 0.106 0.001 0.21-0.022 0.306-0.066 0.095-0.042 0.181-0.101 0.253-0.175 0.070-0.074 0.127-0.16 0.166-0.254 0.041-0.096 0.061-0.199 0.061-0.303v-0.212h-0.496v0.169c0.001 0.058-0.008 0.115-0.029 0.169-0.016 0.040-0.041 0.077-0.072 0.107-0.031 0.025-0.066 0.043-0.104 0.055-0.033 0.011-0.068 0.017-0.104 0.018-0.044 0.005-0.089-0.001-0.13-0.019s-0.076-0.046-0.103-0.082c-0.047-0.076-0.070-0.165-0.066-0.254v-1.769c-0.003-0.098 0.018-0.195 0.061-0.284 0.026-0.040 0.062-0.072 0.105-0.092s0.091-0.028 0.138-0.022c0.043-0.001 0.085 0.007 0.124 0.026s0.072 0.046 0.098 0.081c0.055 0.073 0.084 0.163 0.082 0.254v0.164h0.491v-0.193c0.001-0.113-0.020-0.226-0.061-0.332-0.037-0.099-0.093-0.19-0.166-0.267v0z"></path>
            <path d="M20.814 22.585c-0.158-0.134-0.358-0.207-0.564-0.209-0.101 0-0.201 0.018-0.296 0.053-0.096 0.035-0.185 0.087-0.262 0.155-0.082 0.074-0.148 0.164-0.192 0.266-0.050 0.116-0.075 0.241-0.072 0.367v1.819c-0.003 0.128 0.021 0.255 0.072 0.373 0.045 0.098 0.111 0.185 0.192 0.254 0.076 0.070 0.165 0.125 0.262 0.16 0.095 0.035 0.195 0.053 0.296 0.053s0.201-0.018 0.296-0.053c0.099-0.036 0.19-0.090 0.268-0.16s0.143-0.157 0.187-0.254c0.051-0.117 0.076-0.245 0.072-0.373v-1.819c0.002-0.126-0.022-0.252-0.072-0.367-0.044-0.1-0.108-0.191-0.187-0.266v0zM20.583 25.037c0.004 0.048-0.003 0.097-0.020 0.143s-0.044 0.087-0.079 0.12c-0.066 0.055-0.148 0.085-0.233 0.085s-0.168-0.030-0.233-0.085c-0.035-0.034-0.062-0.075-0.079-0.12s-0.024-0.094-0.020-0.143v-1.819c-0.004-0.048 0.002-0.097 0.020-0.143s0.044-0.087 0.079-0.12c0.066-0.055 0.148-0.085 0.233-0.085s0.168 0.030 0.233 0.085c0.035 0.034 0.062 0.075 0.079 0.12s0.024 0.094 0.020 0.143v1.819z"></path>
            <path d="M24.684 25.85v-3.444h-0.477l-0.626 1.823h-0.009l-0.631-1.823h-0.472v3.444h0.492v-2.095h0.009l0.482 1.481h0.245l0.486-1.481h0.009v2.095h0.492z"></path>
            <path d="M27.479 22.647c-0.076-0.085-0.171-0.15-0.278-0.188-0.115-0.037-0.236-0.055-0.357-0.053h-0.731v3.444h0.491v-1.345h0.253c0.153 0.007 0.306-0.025 0.443-0.094 0.112-0.062 0.205-0.153 0.269-0.263 0.057-0.092 0.095-0.194 0.113-0.3 0.019-0.13 0.028-0.261 0.027-0.392 0.005-0.165-0.011-0.331-0.048-0.492-0.033-0.119-0.095-0.228-0.181-0.317v0zM27.226 23.697c-0.002 0.062-0.018 0.124-0.046 0.179-0.028 0.053-0.072 0.095-0.126 0.121-0.073 0.033-0.152 0.047-0.232 0.043h-0.224v-1.171h0.253c0.076-0.004 0.152 0.011 0.221 0.043 0.051 0.029 0.091 0.074 0.115 0.127 0.027 0.060 0.041 0.126 0.043 0.192 0 0.073 0 0.149 0 0.229s0.005 0.163 0 0.237h-0.005z"></path>
            <path d="M29.804 22.405h-0.402l-0.759 3.444h0.491l0.144-0.74h0.669l0.144 0.74h0.491l-0.778-3.444zM29.351 24.641l0.242-1.249h0.009l0.24 1.249h-0.491z"></path>
            <path d="M32.975 24.48h-0.009l-0.741-2.075h-0.472v3.444h0.491v-2.071h0.010l0.75 2.071h0.462v-3.444h-0.491v2.075z"></path>
            <path d="M35.974 22.405l-0.395 1.369h-0.010l-0.395-1.369h-0.52l0.674 1.989v1.456h0.491v-1.456l0.674-1.989h-0.52z"></path>
            <path d="M16.5 26.822h0.237v0.664h0.161v-0.664h0.235v-0.136h-0.632v0.136z"></path>
            <path d="M18.488 26.686l-0.31 0.8h0.171l0.066-0.182h0.319l0.068 0.182h0.175l-0.317-0.8h-0.171zM18.463 27.169l0.109-0.296 0.109 0.296h-0.218z"></path>
            <path d="M20.454 27.191h0.185v0.103c-0.054 0.043-0.121 0.067-0.19 0.067-0.032 0.002-0.064-0.004-0.094-0.017s-0.055-0.033-0.076-0.059c-0.042-0.061-0.063-0.134-0.059-0.209 0-0.178 0.077-0.267 0.23-0.267 0.040-0.004 0.081 0.007 0.114 0.030s0.057 0.058 0.067 0.097l0.158-0.030c-0.034-0.156-0.147-0.235-0.339-0.235-0.103-0.003-0.203 0.034-0.279 0.103-0.040 0.040-0.072 0.088-0.091 0.141s-0.028 0.11-0.024 0.167c-0.005 0.109 0.032 0.217 0.102 0.3 0.039 0.040 0.087 0.072 0.139 0.092s0.109 0.029 0.165 0.025c0.125 0.003 0.247-0.042 0.339-0.127v-0.315h-0.347v0.135z"></path>
            <path d="M22.461 26.686h-0.162v0.8h0.56v-0.136h-0.398v-0.664z"></path>
            <path d="M24.159 26.686h-0.162v0.8h0.162v-0.8z"></path>
            <path d="M25.818 27.22l-0.328-0.534h-0.157v0.8h0.15v-0.523l0.321 0.523h0.161v-0.8h-0.148v0.534z"></path>
            <path d="M27.318 27.134h0.398v-0.136h-0.398v-0.175h0.429v-0.136h-0.591v0.8h0.607v-0.136h-0.445v-0.216z"></path>
            <path d="M30.956 27.002h-0.315v-0.315h-0.161v0.8h0.161v-0.35h0.315v0.35h0.161v-0.8h-0.161v0.315z"></path>
            <path d="M32.465 27.134h0.4v-0.136h-0.4v-0.175h0.43v-0.136h-0.591v0.8h0.606v-0.136h-0.445v-0.216z"></path>
            <path d="M34.512 27.134c0.139-0.022 0.21-0.095 0.21-0.223 0.004-0.034-0.001-0.068-0.015-0.1s-0.036-0.058-0.064-0.078c-0.072-0.036-0.153-0.053-0.234-0.047h-0.339v0.8h0.161v-0.334h0.032c0.034-0.002 0.068 0.004 0.1 0.018 0.023 0.015 0.043 0.035 0.057 0.059l0.175 0.254h0.192l-0.097-0.156c-0.043-0.077-0.104-0.143-0.177-0.192v0zM34.35 27.023h-0.119v-0.201h0.126c0.055-0.004 0.111 0.002 0.163 0.019 0.012 0.010 0.021 0.023 0.027 0.038s0.009 0.030 0.008 0.046c-0.001 0.016-0.005 0.031-0.012 0.045s-0.018 0.026-0.030 0.035c-0.053 0.016-0.108 0.023-0.163 0.019v0z"></path>
            <path d="M36.055 27.134h0.398v-0.136h-0.398v-0.175h0.43v-0.136h-0.592v0.8h0.607v-0.136h-0.445v-0.216z"></path>
        </symbol>
        <symbol id="icon-group3" viewBox="0 0 53 30">
            <path d="M18.203 24.551c0.008 0 0.016 0.002 0.023 0.005s0.014 0.007 0.019 0.012l0.109 0.104c-0.085 0.084-0.189 0.152-0.307 0.198-0.138 0.050-0.286 0.074-0.435 0.071-0.14 0.002-0.279-0.020-0.409-0.066-0.117-0.043-0.222-0.106-0.308-0.187-0.088-0.084-0.156-0.182-0.199-0.289-0.048-0.119-0.071-0.245-0.070-0.371-0.002-0.127 0.023-0.253 0.075-0.372 0.048-0.108 0.119-0.206 0.211-0.289 0.093-0.082 0.204-0.146 0.327-0.188 0.134-0.045 0.277-0.068 0.421-0.066 0.134-0.003 0.267 0.018 0.391 0.060 0.108 0.041 0.207 0.097 0.293 0.167l-0.091 0.111c-0.006 0.008-0.014 0.015-0.023 0.020-0.011 0.006-0.024 0.009-0.037 0.008-0.014-0.001-0.028-0.005-0.039-0.012l-0.049-0.030-0.068-0.038c-0.029-0.014-0.060-0.026-0.091-0.037-0.040-0.013-0.082-0.023-0.124-0.030-0.053-0.009-0.108-0.013-0.162-0.012-0.104-0.001-0.207 0.016-0.303 0.050-0.090 0.031-0.17 0.079-0.237 0.14-0.068 0.065-0.12 0.14-0.154 0.223-0.038 0.094-0.057 0.194-0.056 0.294-0.002 0.102 0.017 0.203 0.056 0.299 0.033 0.082 0.085 0.157 0.151 0.222 0.062 0.060 0.14 0.107 0.226 0.137 0.089 0.032 0.185 0.048 0.281 0.047 0.056 0.001 0.111-0.002 0.166-0.009 0.090-0.010 0.176-0.037 0.252-0.079 0.038-0.022 0.074-0.046 0.108-0.073 0.014-0.012 0.032-0.018 0.052-0.019v0z"></path>
            <path d="M21.352 24.027c0.002 0.126-0.023 0.251-0.074 0.368-0.044 0.107-0.114 0.204-0.205 0.286s-0.201 0.146-0.322 0.188c-0.267 0.088-0.562 0.088-0.829 0-0.121-0.043-0.23-0.107-0.32-0.188-0.091-0.083-0.161-0.181-0.207-0.289-0.098-0.239-0.098-0.499 0-0.738 0.046-0.108 0.117-0.206 0.207-0.29 0.091-0.079 0.2-0.141 0.32-0.181 0.267-0.090 0.562-0.090 0.829 0 0.121 0.043 0.231 0.107 0.322 0.188 0.090 0.082 0.16 0.179 0.206 0.285 0.051 0.119 0.075 0.244 0.074 0.371zM21.066 24.027c0.002-0.101-0.015-0.201-0.052-0.296-0.031-0.082-0.080-0.157-0.146-0.222-0.064-0.061-0.143-0.109-0.23-0.14-0.194-0.065-0.409-0.065-0.603 0-0.088 0.031-0.166 0.079-0.23 0.14-0.067 0.064-0.117 0.139-0.147 0.222-0.069 0.193-0.069 0.399 0 0.592 0.031 0.082 0.081 0.157 0.147 0.222 0.064 0.060 0.143 0.108 0.23 0.139 0.194 0.063 0.408 0.063 0.603 0 0.088-0.031 0.166-0.078 0.23-0.139 0.065-0.065 0.115-0.14 0.146-0.222 0.037-0.095 0.054-0.196 0.052-0.296v0z"></path>
            <path d="M23.501 24.337l0.029 0.066c0.011-0.024 0.020-0.045 0.031-0.066s0.022-0.044 0.035-0.065l0.697-1.1c0.014-0.019 0.026-0.031 0.039-0.034 0.019-0.005 0.038-0.007 0.057-0.006h0.206v1.79h-0.244v-1.316c0-0.017 0-0.036 0-0.056-0.001-0.021-0.001-0.041 0-0.062l-0.701 1.116c-0.009 0.017-0.023 0.031-0.041 0.041s-0.039 0.015-0.060 0.015h-0.039c-0.021 0-0.042-0.005-0.060-0.015s-0.032-0.024-0.041-0.041l-0.721-1.123c0 0.021 0 0.043 0 0.064s0 0.040 0 0.057v1.316h-0.236v-1.786h0.206c0.019-0.001 0.039 0.001 0.057 0.006 0.017 0.007 0.030 0.019 0.038 0.034l0.712 1.102c0.014 0.020 0.026 0.042 0.035 0.064v0z"></path>
            <path d="M26.122 24.248v0.67h-0.273v-1.787h0.608c0.115-0.002 0.229 0.011 0.339 0.039 0.088 0.022 0.17 0.060 0.24 0.111 0.061 0.048 0.107 0.108 0.136 0.175 0.032 0.073 0.048 0.15 0.046 0.229 0.001 0.078-0.016 0.156-0.050 0.229-0.033 0.069-0.083 0.13-0.147 0.179-0.070 0.054-0.152 0.094-0.241 0.118-0.106 0.030-0.217 0.044-0.329 0.041l-0.33-0.005zM26.122 24.057h0.33c0.072 0.001 0.143-0.008 0.211-0.027 0.056-0.016 0.108-0.043 0.153-0.077 0.041-0.033 0.073-0.073 0.093-0.118 0.022-0.048 0.033-0.099 0.033-0.15 0.003-0.050-0.006-0.099-0.027-0.146s-0.054-0.088-0.095-0.122c-0.104-0.071-0.235-0.105-0.367-0.096h-0.33v0.737z"></path>
            <path d="M29.787 24.921h-0.215c-0.022 0.001-0.043-0.005-0.060-0.017-0.015-0.011-0.028-0.025-0.035-0.041l-0.185-0.432h-0.931l-0.192 0.432c-0.007 0.016-0.019 0.030-0.034 0.040-0.017 0.012-0.039 0.018-0.061 0.018h-0.215l0.818-1.79h0.284l0.829 1.79zM28.437 24.257h0.769l-0.324-0.728c-0.025-0.055-0.045-0.111-0.061-0.168l-0.031 0.094c-0.010 0.028-0.020 0.054-0.030 0.076l-0.322 0.727z"></path>
            <path d="M30.964 23.14c0.016 0.008 0.030 0.019 0.041 0.032l1.193 1.349c0-0.021 0-0.043 0-0.063s0-0.040 0-0.059v-1.267h0.244v1.79h-0.136c-0.019 0-0.039-0.003-0.056-0.011-0.017-0.009-0.032-0.020-0.044-0.033l-1.192-1.348c0.001 0.021 0.001 0.041 0 0.062 0 0.020 0 0.038 0 0.054v1.276h-0.244v-1.79h0.144c0.017-0 0.034 0.002 0.049 0.008v0z"></path>
            <path d="M34.452 24.209v0.711h-0.273v-0.711l-0.754-1.078h0.244c0.021-0.001 0.042 0.004 0.059 0.015 0.015 0.012 0.027 0.025 0.037 0.040l0.472 0.695c0.019 0.030 0.035 0.057 0.049 0.083s0.025 0.051 0.034 0.076l0.035-0.077c0.013-0.028 0.029-0.055 0.046-0.082l0.465-0.7c0.010-0.014 0.022-0.027 0.035-0.038 0.016-0.012 0.037-0.019 0.059-0.018h0.247l-0.755 1.083z"></path>
            <path d="M23.366 20.128c0.119 0.013 0.239 0.024 0.36 0.033 1.839-0.715 3.396-1.885 4.474-3.364s1.631-3.202 1.589-4.952l-2.027-1.761c0.412 1.864 0.219 3.79-0.557 5.564s-2.105 3.325-3.838 4.48v0z"></path>
            <path d="M22.642 20.046l0.055 0.009c1.852-1.151 3.264-2.758 4.053-4.614s0.92-3.874 0.375-5.795l-2.887-2.509c1.168 2.062 1.638 4.37 1.356 6.655s-1.305 4.453-2.951 6.253v0z"></path>
            <path d="M32.434 13.913c-0.491 1.923-1.682 3.658-3.397 4.946-0.501 0.378-1.041 0.715-1.614 1.007 1.397-0.357 2.68-0.987 3.752-1.843s1.903-1.914 2.43-3.093l-1.171-1.016z"></path>
            <path d="M31.974 13.63l-1.667-1.449c-0.032 1.652-0.572 3.266-1.565 4.674s-2.402 2.561-4.080 3.336h0.008c0.374-0 0.748-0.020 1.119-0.058 1.569-0.556 2.955-1.441 4.034-2.576s1.818-2.484 2.151-3.928v0z"></path>
            <path d="M22.883 6.080l-1.989-1.73c-1.778 0.597-3.307 1.646-4.387 3.011s-1.661 2.981-1.667 4.637v0c0.007 1.83 0.716 3.606 2.015 5.046s3.114 2.464 5.157 2.907c1.824-1.931 2.892-4.317 3.049-6.812s-0.606-4.967-2.178-7.059v0z"></path>
            <path d="M36.57 13.364c-0.007-2.171-1.003-4.252-2.77-5.787s-4.162-2.401-6.661-2.407v0c-1.155-0.001-2.3 0.184-3.377 0.546l12.178 10.581c0.417-0.935 0.63-1.93 0.63-2.933v0z"></path>
        </symbol>
        <symbol id="icon-group4" viewBox="0 0 53 30">
            <path d="M12.073 10.551h-0.001c-1.199 0-2.171 0.864-2.171 1.929v0.001c0 1.066 0.972 1.929 2.171 1.929h0.001c1.199 0 2.171-0.864 2.171-1.929v-0.001c0-1.066-0.972-1.929-2.171-1.929z"></path>
            <path d="M28.097 9.935c-0.003-1.48-0.666-2.899-1.844-3.945s-2.773-1.636-4.439-1.64v0c-1.666 0.003-3.263 0.592-4.441 1.639s-1.841 2.466-1.845 3.946v0 8.161c0 0 12.567-1.244 12.568-8.16v-0.001z"></path>
            <path d="M5.5 20.775c0.003 1.030 0.465 2.017 1.284 2.745s1.93 1.139 3.088 1.142v0c1.158-0.003 2.269-0.413 3.088-1.141s1.281-1.715 1.284-2.744v0-5.679c0 0-8.744 0.866-8.744 5.678zM9.872 21.792c-0.226 0-0.448-0.060-0.636-0.171s-0.335-0.271-0.422-0.457c-0.087-0.186-0.109-0.39-0.065-0.588s0.153-0.379 0.313-0.521c0.16-0.142 0.364-0.239 0.586-0.278s0.452-0.019 0.661 0.058c0.209 0.077 0.388 0.207 0.514 0.375s0.193 0.364 0.193 0.565c0.001 0.134-0.029 0.267-0.086 0.391s-0.142 0.237-0.248 0.331c-0.106 0.095-0.233 0.17-0.372 0.222s-0.288 0.078-0.439 0.078v-0.004z"></path>
            <path d="M18.709 21.232h-0.844v0.872h-0.439v-2.133h1.389v0.356h-0.949v0.551h0.844v0.354zM20.821 21.085c0 0.21-0.037 0.394-0.111 0.552s-0.181 0.28-0.319 0.366c-0.138 0.086-0.296 0.129-0.475 0.129-0.177 0-0.335-0.043-0.473-0.127s-0.246-0.206-0.322-0.363c-0.076-0.158-0.115-0.34-0.116-0.545v-0.105c0-0.21 0.038-0.395 0.113-0.554 0.076-0.16 0.183-0.283 0.321-0.368s0.297-0.129 0.475-0.129 0.335 0.043 0.473 0.129c0.139 0.085 0.246 0.208 0.321 0.368 0.076 0.159 0.114 0.343 0.114 0.552v0.095zM20.376 20.989c0-0.224-0.040-0.394-0.12-0.51s-0.194-0.174-0.343-0.174c-0.147 0-0.261 0.058-0.341 0.173s-0.121 0.282-0.122 0.504v0.104c0 0.218 0.040 0.387 0.12 0.507s0.195 0.18 0.346 0.18c0.147 0 0.261-0.058 0.34-0.173s0.119-0.285 0.12-0.507v-0.104zM22.246 21.544c0-0.083-0.029-0.147-0.088-0.19s-0.164-0.092-0.316-0.141c-0.152-0.050-0.273-0.099-0.362-0.147-0.242-0.131-0.363-0.307-0.363-0.529 0-0.115 0.032-0.218 0.097-0.308s0.159-0.162 0.28-0.212c0.122-0.051 0.259-0.076 0.41-0.076s0.288 0.028 0.407 0.083c0.119 0.055 0.211 0.132 0.277 0.233s0.1 0.215 0.1 0.343h-0.439c0-0.098-0.031-0.173-0.092-0.227s-0.148-0.082-0.259-0.082c-0.107 0-0.191 0.023-0.25 0.069s-0.089 0.105-0.089 0.179c0 0.069 0.035 0.127 0.104 0.174s0.173 0.091 0.309 0.132c0.25 0.075 0.432 0.168 0.546 0.28s0.171 0.25 0.171 0.416c0 0.185-0.070 0.33-0.209 0.435s-0.328 0.157-0.564 0.157c-0.164 0-0.314-0.030-0.448-0.089s-0.238-0.143-0.309-0.248c-0.070-0.105-0.105-0.226-0.105-0.363h0.441c0 0.235 0.141 0.353 0.422 0.353 0.104 0 0.186-0.021 0.245-0.063s0.088-0.103 0.088-0.179zM24.592 20.327h-0.653v1.777h-0.439v-1.777h-0.645v-0.356h1.737v0.356zM26.127 21.179h-0.844v0.571h0.99v0.353h-1.43v-2.133h1.427v0.356h-0.987v0.508h0.844v0.344zM27.321 21.323h-0.35v0.781h-0.439v-2.133h0.793c0.252 0 0.446 0.056 0.583 0.168s0.205 0.271 0.205 0.476c0 0.146-0.032 0.267-0.095 0.365s-0.158 0.174-0.286 0.231l0.461 0.872v0.021h-0.472l-0.4-0.781zM26.971 20.967h0.354c0.11 0 0.196-0.028 0.256-0.083 0.061-0.057 0.091-0.134 0.091-0.233 0-0.101-0.029-0.18-0.086-0.237s-0.144-0.086-0.262-0.086h-0.353v0.64zM29.634 21.352v0.751h-0.439v-2.133h0.832c0.16 0 0.301 0.029 0.422 0.088 0.122 0.059 0.216 0.142 0.281 0.25s0.098 0.23 0.098 0.368c0 0.209-0.072 0.374-0.215 0.495s-0.34 0.18-0.593 0.18h-0.385zM29.634 20.996h0.393c0.116 0 0.205-0.027 0.265-0.082s0.092-0.133 0.092-0.234c0-0.105-0.031-0.189-0.092-0.253s-0.146-0.098-0.255-0.1h-0.403v0.669zM32.414 21.179h-0.844v0.571h0.99v0.353h-1.43v-2.133h1.427v0.356h-0.987v0.508h0.844v0.344zM34.453 20.327h-0.653v1.777h-0.439v-1.777h-0.645v-0.356h1.737v0.356zM35.988 21.179h-0.844v0.571h0.99v0.353h-1.43v-2.133h1.427v0.356h-0.987v0.508h0.844v0.344zM37.182 21.323h-0.35v0.781h-0.439v-2.133h0.792c0.252 0 0.446 0.056 0.583 0.168s0.205 0.271 0.205 0.476c0 0.146-0.032 0.267-0.095 0.365s-0.158 0.174-0.286 0.231l0.461 0.872v0.021h-0.472l-0.4-0.781zM36.832 20.967h0.354c0.11 0 0.196-0.028 0.256-0.083 0.061-0.057 0.091-0.134 0.091-0.233 0-0.101-0.029-0.18-0.086-0.237s-0.144-0.086-0.262-0.086h-0.353v0.64zM39.414 21.544c0-0.083-0.029-0.147-0.088-0.19s-0.164-0.092-0.316-0.141c-0.152-0.050-0.273-0.099-0.362-0.147-0.242-0.131-0.363-0.307-0.363-0.529 0-0.115 0.032-0.218 0.097-0.308s0.159-0.162 0.28-0.212c0.122-0.051 0.259-0.076 0.41-0.076s0.288 0.028 0.407 0.083c0.119 0.055 0.211 0.132 0.277 0.233 0.066 0.101 0.1 0.215 0.1 0.343h-0.439c0-0.098-0.031-0.173-0.092-0.227s-0.148-0.082-0.259-0.082c-0.107 0-0.191 0.023-0.25 0.069s-0.089 0.105-0.089 0.179c0 0.069 0.035 0.127 0.104 0.174s0.173 0.091 0.309 0.132c0.25 0.075 0.432 0.168 0.546 0.28s0.171 0.25 0.171 0.416c0 0.185-0.070 0.33-0.21 0.435s-0.328 0.157-0.564 0.157c-0.164 0-0.314-0.030-0.448-0.089s-0.238-0.143-0.309-0.248c-0.070-0.105-0.105-0.226-0.105-0.363h0.441c0 0.235 0.141 0.353 0.422 0.353 0.105 0 0.186-0.021 0.245-0.063s0.088-0.103 0.088-0.179z"></path>
        </symbol>
        <symbol id="icon-group5" viewBox="0 0 53 30">
            <path d="M13.378 22.368c0.122 0.138 0.187 0.311 0.183 0.488 0.006 0.116-0.016 0.231-0.065 0.338s-0.124 0.202-0.219 0.279c-0.237 0.164-0.53 0.244-0.826 0.225h-1.452v-3.096h1.422c0.281-0.017 0.559 0.056 0.788 0.206 0.092 0.070 0.165 0.159 0.212 0.26s0.070 0.21 0.063 0.319c0.008 0.171-0.050 0.339-0.165 0.473-0.11 0.123-0.263 0.208-0.433 0.242 0.193 0.032 0.366 0.126 0.491 0.265v0zM11.676 21.9h0.608c0.138 0.009 0.275-0.027 0.387-0.103 0.046-0.038 0.081-0.085 0.104-0.137s0.032-0.109 0.027-0.165c0.004-0.056-0.005-0.112-0.027-0.164s-0.057-0.099-0.102-0.138c-0.114-0.078-0.256-0.115-0.398-0.104h-0.598v0.812zM12.729 23.087c0.049-0.039 0.087-0.087 0.112-0.142s0.036-0.114 0.032-0.173c0.004-0.060-0.008-0.119-0.033-0.174s-0.064-0.104-0.114-0.143c-0.119-0.081-0.265-0.12-0.413-0.112h-0.638v0.851h0.646c0.145 0.008 0.289-0.030 0.408-0.107v0z"></path>
            <path d="M16.285 23.698l-0.791-1.21h-0.297v1.21h-0.681v-3.096h1.288c0.325-0.021 0.646 0.073 0.897 0.263 0.18 0.168 0.289 0.389 0.306 0.624s-0.057 0.468-0.21 0.657c-0.159 0.167-0.376 0.278-0.614 0.315l0.842 1.237h-0.74zM15.197 22.067h0.557c0.387 0 0.58-0.156 0.58-0.469 0.004-0.064-0.007-0.128-0.031-0.188s-0.062-0.114-0.111-0.16c-0.122-0.093-0.279-0.138-0.438-0.126h-0.563l0.007 0.942z"></path>
            <path d="M20.005 23.075h-1.356l-0.24 0.623h-0.714l1.245-3.061h0.771l1.24 3.061h-0.714l-0.234-0.623zM19.823 22.606l-0.495-1.307-0.496 1.307h0.991z"></path>
            <path d="M24.661 23.698h-0.676l-1.515-2.105v2.105h-0.674v-3.096h0.674l1.515 2.117v-2.117h0.676v3.096z"></path>
            <path d="M28.516 22.957c-0.14 0.234-0.353 0.424-0.611 0.546-0.294 0.136-0.62 0.203-0.95 0.195h-1.202v-3.096h1.202c0.329-0.008 0.655 0.058 0.95 0.191 0.259 0.119 0.472 0.308 0.611 0.54 0.139 0.252 0.212 0.53 0.212 0.812s-0.072 0.56-0.212 0.812v0zM27.743 22.883c0.193-0.206 0.299-0.468 0.299-0.739s-0.106-0.533-0.299-0.739c-0.233-0.186-0.537-0.281-0.846-0.263h-0.469v2.004h0.469c0.309 0.018 0.613-0.077 0.846-0.263z"></path>
            <path d="M20.428 3.383c0 0 8.719 3.014 8.534 7.376v7.377c0 0-8.713-3.016-8.531-7.377l-0.003-7.376z"></path>
            <path d="M36.73 16.409c1.647-1.038 3.552-1.68 5.54-1.869v-2.309c-2.291 0.809-4.235 2.274-5.54 4.179v0z"></path>
            <path d="M35.741 17.105c1.348-2.485 3.684-4.402 6.529-5.358v-6.654c0 0-12.418 4.293-12.155 10.505v10.503c0 0 0.553-0.192 1.424-0.552 0-0.336 0-0.674 0.040-1.015 0.257-2.883 1.754-5.556 4.162-7.429v0z"></path>
            <path d="M34.56 21.007c0.065-0.728 0.211-1.449 0.434-2.151-1.499 1.618-2.408 3.625-2.596 5.739-0.018 0.2-0.028 0.399-0.033 0.605 0.705-0.31 1.526-0.697 2.388-1.152-0.22-1-0.285-2.024-0.193-3.041v0z"></path>
            <path d="M35.054 21.044c-0.083 0.92-0.031 1.846 0.154 2.754 3.393-1.859 7.205-4.731 7.058-8.201v-0.302c-2.424 0.248-4.692 1.218-6.455 2.761-0.413 0.956-0.668 1.963-0.756 2.988v0z"></path>
        </symbol>
        <symbol id="icon-group6" viewBox="0 0 53 30">
            <path d="M26.713 13.704c-0.222-0.295-0.328-0.643-0.302-0.994v-1.442c0-0.442 0.1-0.778 0.301-1.007s0.545-0.344 1.033-0.343c0.459 0 0.784 0.098 0.977 0.293 0.21 0.249 0.312 0.555 0.289 0.862v0.339h-0.82v-0.343c0.003-0.112-0.005-0.225-0.024-0.336-0.012-0.076-0.053-0.146-0.117-0.199-0.084-0.057-0.19-0.085-0.297-0.078-0.112-0.007-0.224 0.022-0.313 0.082-0.071 0.059-0.119 0.136-0.136 0.22-0.024 0.118-0.034 0.237-0.032 0.356v1.75c-0.013 0.169 0.023 0.338 0.105 0.491 0.041 0.052 0.097 0.093 0.164 0.119s0.14 0.035 0.212 0.028c0.105 0.007 0.209-0.021 0.29-0.079 0.067-0.057 0.11-0.132 0.122-0.213 0.019-0.116 0.028-0.233 0.025-0.351v-0.355h0.82v0.324c0.023 0.321-0.077 0.639-0.284 0.906-0.189 0.214-0.51 0.321-0.982 0.321s-0.829-0.114-1.031-0.352z"></path>
            <path d="M30.128 13.719c-0.207-0.224-0.311-0.551-0.311-0.984v-1.516c0-0.428 0.104-0.752 0.311-0.972s0.554-0.33 1.040-0.329c0.482 0 0.827 0.11 1.034 0.329s0.313 0.544 0.313 0.972v1.516c0 0.428-0.105 0.757-0.316 0.983s-0.554 0.339-1.031 0.339c-0.477 0-0.831-0.114-1.040-0.337zM31.55 13.355c0.074-0.141 0.108-0.294 0.099-0.449v-1.857c0.009-0.151-0.024-0.302-0.097-0.44-0.042-0.053-0.1-0.095-0.168-0.121s-0.143-0.035-0.216-0.026c-0.074-0.009-0.149 0-0.217 0.026s-0.127 0.068-0.169 0.121c-0.075 0.137-0.109 0.288-0.098 0.44v1.865c-0.010 0.154 0.023 0.308 0.098 0.449 0.048 0.047 0.107 0.085 0.173 0.111s0.138 0.039 0.211 0.039c0.073 0 0.145-0.013 0.211-0.039s0.125-0.064 0.173-0.111v-0.009z"></path>
            <path d="M33.502 9.962h0.883l0.664 2.798 0.679-2.798h0.86l0.087 4.038h-0.635l-0.068-2.807-0.656 2.807h-0.51l-0.679-2.817-0.063 2.817h-0.642l0.080-4.038z"></path>
            <path d="M37.665 9.962h1.376c0.793 0 1.189 0.382 1.189 1.147 0 0.732-0.417 1.098-1.252 1.097h-0.469v1.795h-0.849l0.005-4.038zM38.841 11.688c0.084 0.009 0.169 0.003 0.25-0.020s0.155-0.059 0.217-0.108c0.097-0.136 0.14-0.297 0.122-0.456 0.004-0.123-0.009-0.246-0.041-0.367-0.012-0.040-0.033-0.078-0.062-0.111s-0.066-0.061-0.107-0.081c-0.118-0.049-0.248-0.071-0.379-0.065h-0.33v1.207h0.33z"></path>
            <path d="M41.455 9.962h0.912l0.936 4.038h-0.792l-0.185-0.931h-0.814l-0.19 0.931h-0.803l0.936-4.038zM42.234 12.601l-0.318-1.695-0.318 1.695h0.635z"></path>
            <path d="M44.059 9.962h0.594l1.138 2.304v-2.304h0.705v4.038h-0.566l-1.145-2.405v2.405h-0.729l0.002-4.038z"></path>
            <path d="M48.147 12.46l-0.946-2.493h0.797l0.578 1.601 0.542-1.601h0.78l-0.934 2.493v1.54h-0.815v-1.54z"></path>
            <path d="M28.024 15.766v0.211h-0.693v1.641h-0.291v-1.641h-0.696v-0.211h1.68z"></path>
            <path d="M30.196 17.618h-0.224c-0.023 0.001-0.045-0.005-0.063-0.018-0.017-0.011-0.030-0.025-0.037-0.043l-0.2-0.44h-0.961l-0.2 0.44c-0.006 0.018-0.016 0.035-0.031 0.050-0.018 0.012-0.040 0.018-0.063 0.018h-0.224l0.849-1.852h0.296l0.86 1.845zM28.79 16.93h0.802l-0.34-0.754c-0.025-0.057-0.046-0.115-0.063-0.174-0.012 0.035-0.022 0.069-0.032 0.098l-0.031 0.078-0.336 0.752z"></path>
            <path d="M31.661 17.436c0.053 0.002 0.106 0.002 0.16 0 0.046-0.004 0.091-0.011 0.136-0.022 0.042-0.009 0.083-0.020 0.122-0.034 0.037-0.013 0.075-0.029 0.114-0.045v-0.417h-0.34c-0.008 0-0.017-0.001-0.025-0.003s-0.015-0.006-0.021-0.011c-0.006-0.004-0.010-0.009-0.013-0.015s-0.004-0.012-0.004-0.019v-0.142h0.659v0.71c-0.054 0.033-0.111 0.063-0.17 0.088-0.061 0.026-0.124 0.047-0.189 0.063-0.069 0.018-0.141 0.030-0.212 0.038-0.082 0.008-0.165 0.012-0.248 0.012-0.147 0.001-0.292-0.022-0.428-0.069-0.127-0.044-0.243-0.11-0.34-0.194-0.095-0.084-0.169-0.184-0.219-0.293-0.054-0.123-0.080-0.253-0.078-0.384-0.002-0.132 0.024-0.263 0.076-0.387 0.049-0.11 0.123-0.21 0.219-0.293 0.097-0.083 0.213-0.149 0.34-0.192 0.145-0.047 0.3-0.071 0.455-0.069 0.079-0 0.158 0.005 0.236 0.016 0.069 0.010 0.137 0.025 0.202 0.047 0.059 0.019 0.116 0.044 0.17 0.073 0.052 0.029 0.102 0.061 0.148 0.097l-0.082 0.114c-0.006 0.010-0.016 0.019-0.028 0.025s-0.025 0.010-0.039 0.010c-0.019-0-0.037-0.006-0.053-0.015-0.025-0.012-0.053-0.026-0.083-0.044-0.036-0.020-0.074-0.036-0.114-0.050-0.051-0.018-0.103-0.031-0.156-0.041-0.071-0.011-0.143-0.017-0.216-0.016-0.112-0.001-0.223 0.016-0.328 0.051-0.095 0.033-0.18 0.083-0.25 0.147-0.070 0.067-0.124 0.145-0.158 0.23-0.076 0.201-0.076 0.417 0 0.617 0.037 0.087 0.095 0.167 0.17 0.233 0.070 0.064 0.154 0.114 0.248 0.147 0.108 0.032 0.222 0.045 0.336 0.037v0z"></path>
            <path d="M34.368 17.407h0.927v0.211h-1.211v-1.852h0.29l-0.007 1.641z"></path>
            <path d="M36.26 17.618h-0.291v-1.852h0.291v1.852z"></path>
            <path d="M37.341 15.775c0.017 0.008 0.032 0.020 0.044 0.034l1.242 1.396c-0.002-0.022-0.002-0.044 0-0.066 0-0.021 0-0.041 0-0.060v-1.32h0.253v1.86h-0.146c-0.022 0.001-0.043-0.002-0.063-0.010-0.018-0.009-0.033-0.021-0.046-0.035l-1.24-1.395c0 0.022 0 0.043 0 0.063s0 0.040 0 0.057v1.32h-0.243v-1.852h0.151c0.016 0 0.033 0.003 0.048 0.009v0z"></path>
            <path d="M41.018 15.766v0.204h-1.029v0.612h0.834v0.196h-0.834v0.632h1.029v0.204h-1.328v-1.848h1.328z"></path>
            <path d="M10.581 4.328l12.898 3.162v11.079l-12.898-3.16v-11.080zM9.754 3.383v12.563l14.55 3.568v-12.562l-14.55-3.569z"></path>
            <path d="M17.552 25.346l-14.552-3.571v-12.562l14.552 3.569v12.563z"></path>
            <path d="M9.995 4.185l12.729 3.122-5.413 4.675-12.731-3.123 5.415-4.673zM9.754 3.383l-6.754 5.83 14.552 3.569 6.752-5.83-14.55-3.569z"></path>
            <path d="M18.371 24.639l5.933-5.124-5.933-1.456v6.58z"></path>
        </symbol>

        <symbol id="icon-modal_check_none" viewBox="0 0 30 30">
            <path d="M26.667 4.063v21.875h-23.333v-21.875h23.333zM26.667 0.938h-23.333c-1.833 0-3.333 1.406-3.333 3.125v21.875c0 1.719 1.5 3.125 3.333 3.125h23.333c1.833 0 3.333-1.406 3.333-3.125v-21.875c0-1.719-1.5-3.125-3.333-3.125z"></path>
        </symbol>
        <symbol id="icon-modal_check" viewBox="0 0 30 30">
            <path fill="#2196f3" style="fill: var(--color1, #2196f3)" d="M3.75 0.938h22.5c2.071 0 3.75 1.679 3.75 3.75v20.625c0 2.071-1.679 3.75-3.75 3.75h-22.5c-2.071 0-3.75-1.679-3.75-3.75v-20.625c0-2.071 1.679-3.75 3.75-3.75z"></path>
            <path fill="#fff" style="fill: var(--color2, #fff); stroke: var(--color2, #fff)" stroke="#fff" stroke-linejoin="miter" stroke-linecap="butt" stroke-miterlimit="4" stroke-width="0.375" d="M7.419 15.472l-0.129-0.123-1.938 1.835 6.827 6.512 14.342-13.682-1.925-1.836-12.417 11.834-4.76-4.541z"></path>
        </symbol>
        <symbol id="icon-modal_email" viewBox="0 0 30 30">
            <path d="M25 5h-20c-1.375 0-2.488 1.125-2.488 2.5l-0.013 15c0 1.375 1.125 2.5 2.5 2.5h20c1.375 0 2.5-1.125 2.5-2.5v-15c0-1.375-1.125-2.5-2.5-2.5zM24.5 10.313l-8.837 5.525c-0.4 0.25-0.925 0.25-1.325 0l-8.837-5.525c-0.313-0.2-0.5-0.538-0.5-0.9 0-0.838 0.913-1.337 1.625-0.9l8.375 5.237 8.375-5.237c0.713-0.437 1.625 0.062 1.625 0.9 0 0.362-0.188 0.7-0.5 0.9z"></path>
        </symbol>
        <symbol id="icon-modal_person" viewBox="0 0 30 30">
            <path d="M15 15c2.762 0 5-2.237 5-5s-2.237-5-5-5c-2.762 0-5 2.237-5 5s2.237 5 5 5zM15 17.5c-3.338 0-10 1.675-10 5v1.25c0 0.688 0.562 1.25 1.25 1.25h17.5c0.688 0 1.25-0.563 1.25-1.25v-1.25c0-3.325-6.662-5-10-5z"></path>
        </symbol>
        <symbol id="icon-modal_phone" viewBox="0 0 30 30">
            <path d="M23.327 18.538l-3.063-0.35c-0.736-0.084-1.46 0.169-1.978 0.688l-2.219 2.219c-3.413-1.737-6.212-4.523-7.948-7.948l2.231-2.231c0.519-0.519 0.772-1.242 0.687-1.978l-0.35-3.039c-0.145-1.218-1.17-2.135-2.4-2.135h-2.087c-1.363 0-2.497 1.134-2.412 2.497 0.639 10.3 8.877 18.526 19.165 19.165 1.363 0.084 2.497-1.049 2.497-2.412v-2.087c0.012-1.218-0.905-2.243-2.123-2.388z"></path>
        </symbol>
        <symbol id="icon-icon_send" viewBox="0 0 30 30">
            <path fill="#fff" style="fill: var(--color1, #fff)" d="M30 0l-30 16.875 9.587 3.551 14.788-13.863-11.248 15.174 0.009 0.003-0.011-0.003v8.263l5.377-6.273 6.811 2.523 4.687-26.25z"></path>
        </symbol>
        <symbol id="icon-close_menu" viewBox="0 0 30 30">
            <path d="M22.25 9.66l-1.41-1.41-5.59 5.59-5.59-5.59-1.41 1.41 5.59 5.59-5.59 5.59 1.41 1.41 5.59-5.59 5.59 5.59 1.41-1.41-5.59-5.59 5.59-5.59z"></path>
        </symbol>
        <symbol id="icon-menu" viewBox="0 0 30 30">
            <path d="M6 11v-2h18v2h-18zM6 16h18v-2h-18v2zM6 21h18v-2h-18v2z"></path>
        </symbol>
        <symbol id="icon-close" viewBox="0 0 30 30">
            <path fill="#fff" style="fill: var(--color1, #fff)" d="M30 15c0 8.284-6.716 15-15 15s-15-6.716-15-15c0-8.284 6.716-15 15-15s15 6.716 15 15z"></path>
            <path fill="none" stroke="#000" style="stroke: var(--color2, #00000010)" stroke-linejoin="miter" stroke-linecap="butt" stroke-miterlimit="4" stroke-width="1" d="M29.5 15c0 8.008-6.492 14.5-14.5 14.5s-14.5-6.492-14.5-14.5c0-8.008 6.492-14.5 14.5-14.5s14.5 6.492 14.5 14.5z"></path>
            <path fill="#000" style="fill: var(--color2, #000)" d="M21 10.108l-1.108-1.108-4.392 4.392-4.392-4.392-1.108 1.108 4.392 4.392-4.392 4.392 1.108 1.108 4.392-4.392 4.392 4.392 1.108-1.108-4.392-4.392 4.392-4.392z"></path>
        </symbol>
    </defs>
</svg>